<svg width="960" height="540" viewBox="0 0 960 540" fill="none" xmlns="http://www.w3.org/2000/svg">
  <rect width="960" height="540" rx="24" fill="#0B1120"/>
  <rect x="28" y="30" width="904" height="76" rx="16" fill="#111827"/>
  <rect x="52" y="54" width="118" height="28" rx="14" fill="#FF5C73"/>
  <rect x="190" y="58" width="82" height="20" rx="10" fill="#334155"/>
  <rect x="284" y="58" width="82" height="20" rx="10" fill="#334155"/>
  <rect x="378" y="58" width="82" height="20" rx="10" fill="#334155"/>
  <rect x="28" y="126" width="560" height="272" rx="22" fill="#1E293B"/>
  <rect x="54" y="156" width="232" height="26" rx="13" fill="#F8FAFC" fill-opacity="0.92"/>
  <rect x="54" y="196" width="428" height="16" rx="8" fill="#94A3B8" fill-opacity="0.9"/>
  <rect x="54" y="224" width="360" height="16" rx="8" fill="#94A3B8" fill-opacity="0.7"/>
  <rect x="54" y="264" width="148" height="40" rx="12" fill="#FF5C73"/>
  <rect x="604" y="126" width="328" height="272" rx="22" fill="#111827"/>
  <rect x="626" y="152" width="284" height="22" rx="11" fill="#F8FAFC" fill-opacity="0.88"/>
  <rect x="626" y="190" width="132" height="128" rx="14" fill="#1E293B"/>
  <rect x="778" y="190" width="132" height="128" rx="14" fill="#1E293B"/>
  <rect x="626" y="336" width="284" height="40" rx="12" fill="#FF5C73"/>
  <rect x="28" y="418" width="904" height="94" rx="18" fill="#111827"/>
  <rect x="56" y="446" width="188" height="20" rx="10" fill="#334155"/>
  <rect x="266" y="446" width="188" height="20" rx="10" fill="#334155"/>
  <rect x="476" y="446" width="188" height="20" rx="10" fill="#334155"/>
</svg>
